<svg width="25" height="17" viewBox="0 0 25 17" fill="none" xmlns="http://www.w3.org/2000/svg">
<path d="M10.9381 13.133C11.1435 12.9229 11.3872 12.7563 11.6554 12.6427C11.9236 12.5291 12.211 12.4708 12.5012 12.471C12.7913 12.4712 13.0786 12.5301 13.3466 12.6441C13.6146 12.7581 13.8581 12.9251 14.0631 13.1356C14.2682 13.346 14.4307 13.5958 14.5416 13.8707C14.6524 14.1455 14.7093 14.44 14.7091 14.7374C14.7088 15.0348 14.6515 15.3292 14.5402 15.6039C14.4289 15.8786 14.266 16.1281 14.0606 16.3382C13.6457 16.7625 13.0833 17.0006 12.4971 17C11.911 16.9994 11.349 16.7602 10.935 16.335C10.5209 15.9098 10.2886 15.3334 10.2892 14.7327C10.2898 14.1319 10.5232 13.5573 10.9381 13.133ZM4.16667 9.56806C8.76263 4.85795 16.2374 4.85795 20.8333 9.56806L18.75 11.7031C17.0913 10.0065 14.8435 9.05356 12.5 9.05356C10.1565 9.05356 7.90869 10.0065 6.25 11.7031L4.16667 9.56806ZM0 5.29791C6.89394 -1.76597 18.1061 -1.76597 25 5.29791C24.6202 5.68718 24.0215 6.30075 24.0215 6.30075C24.0215 6.30075 23.3504 6.98846 22.9167 7.43298C17.1717 1.54535 7.82828 1.54535 2.08333 7.43298L0 5.29791Z" fill="white"/>
</svg>
