<svg width="26" height="25" viewBox="0 0 26 25" fill="none" xmlns="http://www.w3.org/2000/svg">
<path d="M17.7674 0C19.3472 0 20.6279 1.2592 20.6279 2.8125V22.1875C20.6279 23.7408 19.3472 25 17.7674 25H8.23257C6.65278 25 5.37211 23.7408 5.37211 22.1875V2.8125C5.37211 1.2592 6.65278 0 8.23257 0H17.7674ZM14.5891 20H11.4109C10.8843 20 10.4574 20.4197 10.4574 20.9375C10.4574 21.4121 10.8161 21.8044 11.2815 21.8664L11.4109 21.875H14.5891C15.1157 21.875 15.5426 21.4553 15.5426 20.9375C15.5426 20.4197 15.1157 20 14.5891 20ZM23.334 6.9644C23.9394 6.72633 24.6206 6.97814 24.9236 7.52854L24.9866 7.66076L25.7272 9.48127C26.1886 10.6154 26.0575 11.8937 25.3887 12.9103L25.2372 13.124L25.0449 13.376C24.812 13.6814 24.7355 14.0719 24.8304 14.4361L24.8816 14.5903L25.6222 16.4108C25.883 17.0517 25.5659 17.7792 24.914 18.0356C24.3086 18.2737 23.6275 18.0219 23.3245 17.4715L23.2614 17.3392L22.5208 15.5187C22.0594 14.3846 22.1905 13.1063 22.8593 12.0897L23.0108 11.876L23.2031 11.624C23.436 11.3186 23.5125 10.9281 23.4176 10.5639L23.3664 10.4097L22.6258 8.58924C22.365 7.94826 22.6821 7.2208 23.334 6.9644ZM1.08601 6.9644C1.69136 6.72633 2.37254 6.97814 2.67555 7.52854L2.73855 7.66076L3.47917 9.48127C3.94055 10.6154 3.80953 11.8937 3.1407 12.9103L2.98917 13.124L2.79692 13.376C2.56399 13.6814 2.48748 14.0719 2.58238 14.4361L2.63359 14.5903L3.37421 16.4108C3.63497 17.0517 3.31789 17.7792 2.66598 18.0356C2.06063 18.2737 1.37945 18.0219 1.07644 17.4715L1.01344 17.3392L0.272817 15.5187C-0.188563 14.3846 -0.0575438 13.1063 0.611288 12.0897L0.76282 11.876L0.955067 11.624C1.188 11.3186 1.26451 10.9281 1.16961 10.5639L1.1184 10.4097L0.377781 8.58924C0.117017 7.94826 0.434103 7.2208 1.08601 6.9644Z" fill="white"/>
</svg>
