<svg width="40" height="22" viewBox="0 0 40 22" fill="none" xmlns="http://www.w3.org/2000/svg">
<path d="M38.261 17.1591C37.3901 16.1644 36.4004 15.2729 35.4432 14.4107C35.1029 14.1041 34.751 13.7871 34.4118 13.4718C33.438 12.5659 33.4025 12.2255 34.1736 11.1964C34.707 10.4871 35.2726 9.77681 35.8196 9.08989C36.3157 8.46667 36.8288 7.82218 37.3205 7.1756L37.4214 7.04266C38.3613 5.80533 39.3332 4.52588 39.8505 2.98244C39.9848 2.57523 40.1259 1.976 39.8034 1.47493C39.4811 0.974276 38.856 0.821535 38.4137 0.750192C38.1949 0.714888 37.9777 0.710069 37.7761 0.710069L31.6213 0.705879L31.5704 0.70546C30.6398 0.70546 30.0127 1.12272 29.6533 1.98124C29.3103 2.80152 28.9334 3.67501 28.5033 4.50556C27.6475 6.15942 26.5606 8.06429 24.9878 9.65298L24.9213 9.72055C24.7355 9.91049 24.5251 10.1256 24.3713 10.1256C24.3478 10.1256 24.3221 10.1213 24.293 10.1126C23.9672 9.99178 23.7486 9.24138 23.7585 8.89232C23.7586 8.8875 23.7587 8.88268 23.7587 8.87786L23.7544 2.10926C23.7544 2.08579 23.7527 2.06253 23.7495 2.03928C23.5929 0.938972 23.2461 0.254045 21.9357 0.00984691C21.9009 0.00324697 21.8653 0 21.8298 0H15.4301C14.3874 0 13.8129 0.403225 13.2729 1.00675C13.1271 1.16808 12.8236 1.50395 12.974 1.91136C13.1266 2.32485 13.622 2.41327 13.7833 2.44198C14.584 2.58697 15.0353 3.05294 15.1631 3.86714C15.3863 5.281 15.4137 6.79008 15.2494 8.61638C15.2036 9.12394 15.113 9.51596 14.9637 9.85088C14.929 9.92903 14.806 10.1841 14.6806 10.1842C14.6408 10.1842 14.5255 10.1694 14.3155 10.0317C13.8191 9.70809 13.4559 9.2463 13.0324 8.67588C11.5918 6.73874 10.3828 4.60477 9.33574 2.15053C8.94741 1.24707 8.22217 0.741288 7.29269 0.726412C6.27139 0.711641 5.34544 0.704517 4.46231 0.704517C3.49738 0.704517 2.60281 0.713003 1.72926 0.730288C0.98145 0.74286 0.464192 0.956153 0.192021 1.36472C-0.0805904 1.7736 -0.062864 2.31071 0.24476 2.96086C2.70729 8.16988 4.94004 11.9573 7.48449 15.2418C9.26737 17.54 11.0556 19.1308 13.1117 20.2477C15.2778 21.4267 17.7053 22 20.5327 22C20.8532 22 21.1847 21.9926 21.5188 21.9777C23.1617 21.9015 23.7713 21.3357 23.8483 19.8136C23.885 19.0358 23.9744 18.22 24.3763 17.5243C24.6299 17.086 24.8664 17.086 24.9442 17.086C25.0939 17.086 25.2795 17.1516 25.4789 17.2744C25.8366 17.4965 26.1432 17.7941 26.3945 18.054C26.6312 18.3009 26.8651 18.5503 27.0993 18.7999C27.6047 19.3384 28.1272 19.8952 28.6731 20.4233C29.8679 21.58 31.1842 22.0887 32.696 21.9783H38.3389C38.3509 21.9783 38.363 21.9779 38.375 21.9772C38.9373 21.9419 39.4243 21.6451 39.7111 21.163C40.0664 20.5657 40.0593 19.8038 39.692 19.1243C39.2752 18.356 38.7346 17.6996 38.261 17.1591Z" fill="white"/>
</svg>
