<svg width="32" height="30" viewBox="0 0 32 30" fill="none" xmlns="http://www.w3.org/2000/svg">
<path fill-rule="evenodd" clip-rule="evenodd" d="M31.828 9.26062H19.4696C19.4696 9.26062 19.4752 11.7306 19.4696 14.7729C19.4654 17.822 19.4696 20.3016 19.4696 20.3016H31.8337V20.786C31.8337 26.1048 31.8337 29.25 31.8337 29.25H0.167342C0.167342 29.25 0.166992 26.1048 0.166992 20.786V9.20161C0.166992 3.88282 0.167112 0.75 0.167112 0.75L31.828 0.75C31.828 0.75 31.828 3.88282 31.828 9.20161V9.26062ZM7.67129 9.24827H16.6013H16.6069H16.6182C17.2867 9.24552 17.8271 8.71447 17.8243 8.06128C17.8215 7.40947 17.2754 6.88253 16.6069 6.88527H7.67129C7.00699 6.88802 6.46795 7.41359 6.46514 8.06265C6.46232 8.71447 7.00277 9.24552 7.67129 9.24827Z" fill="black" fill-opacity="0.78"/>
<path opacity="0.4" d="M22.2725 18.0086H31.8344C31.8344 18.0086 31.8344 17.4891 31.8344 16.847V12.8387C31.833 12.198 31.8344 11.6758 31.8344 11.6758H22.2725L22.2725 18.0086Z" fill="#CACACA"/>
<path d="M27.0837 14.8411C27.0837 15.7156 26.3748 16.4245 25.5003 16.4245C24.6259 16.4245 23.917 15.7156 23.917 14.8411C23.917 13.9667 24.6259 13.2578 25.5003 13.2578C26.3748 13.2578 27.0837 13.9667 27.0837 14.8411Z" fill="black" fill-opacity="0.78"/>
</svg>
